<svg width="90" height="90" viewBox="0 0 90 90" fill="none" xmlns="http://www.w3.org/2000/svg">
<circle cx="45" cy="45" r="45" fill="#159C8B"/>
<path d="M63.5602 40.3635C62.795 39.4056 61.7664 38.736 60.533 38.382C61.6279 35.7195 61.5637 32.5289 60.2653 30.1105C59.3431 28.3932 57.8734 27.2882 56.1403 26.9741C55.4872 21.6028 52.5406 14.4828 46.4456 14.4828C46.0523 14.4828 45.6475 14.5135 45.2421 14.5748C39.3126 15.4706 37.5881 22.0211 37.8915 27.8735C36.3468 27.992 33.8314 28.5388 32.426 30.7358C30.7935 33.3041 31.2775 36.8159 31.7643 38.8252C31.0298 38.9216 30.2996 39.1051 29.685 39.3542C27.989 40.0437 26.7934 41.3228 26.2259 43.0538C25.4051 45.5606 25.9961 48.9069 27.7656 51.7834C31.2475 57.5002 35.2347 65.9479 29.6893 73.2729C29.6243 73.3593 29.5701 73.4535 29.5301 73.5541L29.5287 73.5577C29.3509 74.0003 29.4501 74.5056 29.7799 74.8497C30.0126 75.0924 30.3303 75.2223 30.6557 75.2223C30.7914 75.2223 30.9284 75.1994 31.0612 75.1523C59.7642 64.9679 64.1748 51.9755 64.8422 48.238C65.446 44.8925 65.0028 42.1701 63.5602 40.3635ZM62.4538 47.809C60.8242 56.932 49.0281 64.9829 36.7337 70.3107C40.8666 66.1243 43.8516 60.9207 45.9088 55.5958C47.2621 55.1897 50.7526 53.9677 53.5928 51.4737C53.9925 51.1225 54.0318 50.5136 53.6806 50.1139C53.3294 49.7142 52.7205 49.6749 52.3208 50.0261C50.4835 51.64 48.285 52.6764 46.7561 53.2646C48.1308 49.166 48.9752 45.0774 49.39 41.3999C50.5499 40.8596 52.9025 39.5861 54.1531 37.6746C54.4443 37.2292 54.3194 36.6325 53.874 36.3405C53.4286 36.05 52.8319 36.1749 52.5399 36.6196C51.8311 37.7039 50.5963 38.5583 49.5948 39.1243C49.7883 36.2799 49.7126 33.763 49.4121 31.8072C49.3314 31.2819 48.8403 30.9186 48.3128 31.0014C47.7868 31.082 47.4256 31.5745 47.507 32.1006C47.811 34.0807 47.8781 36.6582 47.6519 39.5747C45.2571 38.6746 43.1393 36.5047 43.1157 36.4797C42.7467 36.0971 42.1364 36.0857 41.7538 36.454C41.3705 36.8231 41.3584 37.4326 41.7274 37.8159C41.8437 37.9373 44.4277 40.594 47.4584 41.5455C47.023 45.2558 46.1322 49.3858 44.6789 53.4944C41.6153 51.6942 38.7138 48.3872 38.6823 48.3508C38.334 47.9497 37.7244 47.9068 37.3233 48.2566C36.9221 48.6056 36.8793 49.2145 37.2291 49.6157C37.3711 49.7791 40.5404 53.3973 43.9958 55.3253C41.8095 60.8358 38.5746 66.1771 34.0227 70.2507C36.8222 61.9957 31.7136 53.5993 29.8363 50.5165C28.4487 48.2609 27.9369 45.6284 28.5329 43.8097C28.8755 42.7632 29.5708 42.0209 30.5986 41.6033C31.2403 41.3428 32.1469 41.1751 32.9085 41.1751C33.0327 41.1751 33.154 41.1793 33.2704 41.1886C33.6929 41.2243 34.0855 41.0416 34.3353 40.7111C34.5859 40.3799 34.6494 39.9445 34.5045 39.5562C34.0106 38.2292 33.0427 34.2919 34.4724 32.0414C35.4945 30.4446 37.7323 30.2719 38.6467 30.2719C38.8993 30.2719 39.0621 30.2854 39.0828 30.2868C39.449 30.3233 39.8066 30.1941 40.0643 29.9357C40.3219 29.6766 40.449 29.3154 40.4104 28.9528C39.8751 23.8706 40.9144 17.6848 45.6054 16.976C45.8909 16.9325 46.1736 16.9111 46.4463 16.9111C51.248 16.9111 53.5171 23.8242 53.8198 28.1819C53.864 28.8186 54.4472 29.3111 55.0846 29.3111C55.0903 29.3111 55.096 29.3111 55.1017 29.3111C56.7377 29.3111 57.6507 30.3711 58.1282 31.2605C59.2767 33.4004 59.0826 36.5047 57.6671 38.6404C57.4258 39.0051 57.3987 39.4712 57.5971 39.861C57.7956 40.2507 58.1882 40.5034 58.625 40.5226C59.9705 40.5819 60.9934 41.0387 61.6658 41.8796C62.6422 43.103 62.9235 45.2087 62.4538 47.809Z" fill="white"/>
</svg>
